<?xml version="1.0" encoding="UTF-8"?>
<svg width="68px" height="68px" viewBox="0 0 68 68" version="1.1" xmlns="http://www.w3.org/2000/svg" xmlns:xlink="http://www.w3.org/1999/xlink">
    <!-- Generator: Sketch 57.1 (83088) - https://sketch.com -->
    <title>alert-circle</title>
    <desc>Created with Sketch.</desc>
    <g id="Page-1" stroke="none" stroke-width="1" fill="none" fill-rule="evenodd">
        <g id="alert-circle" transform="translate(2.000000, 2.000000)" fill="#F5A623" fill-rule="nonzero">
            <path d="M28.8235294,45.7647059 C28.8235294,47.5190228 30.2456831,48.9411765 32,48.9411765 C33.7543169,48.9411765 35.1764705,47.5190227 35.1764705,45.7647059 C35.1764705,44.010389 33.7543168,42.5882353 32,42.5882353 C30.2453078,42.5886106 28.8235294,44.0106204 28.8235294,45.7647059 Z" id="Path"></path>
            <path d="M34.1176471,36.2352941 L34.1176471,12.9411765 C34.1176471,11.7716323 33.1695442,10.8235294 32,10.8235294 C30.8304558,10.8235294 29.8823529,11.7716323 29.8823529,12.9411765 L29.8823529,36.2352941 C29.8823529,37.4048383 30.8304558,38.3529412 32,38.3529412 C33.1695442,38.3529412 34.1176471,37.4048383 34.1176471,36.2352941 Z" id="Path"></path>
            <path d="M54.4611765,9.53896471 L55.9585791,8.04156211 C42.7266923,-5.19032463 21.27359,-5.19032463 8.04170329,8.04156211 C-5.19018345,21.2734488 -5.19018345,42.7265512 8.04170329,55.9584379 C21.27359,69.1903246 42.7266923,69.1903246 55.9585791,55.9584379 C69.1904658,42.7265512 69.1904658,21.2734488 55.9585791,8.04156211 L54.4611765,9.53896471 Z M54.4611765,9.53896471 L52.9637739,11.0363673 C64.5416754,22.6142688 64.5416754,41.3857312 52.9637739,52.9636327 C41.3858724,64.5415342 22.61441,64.5415342 11.0365085,52.9636327 C-0.541393022,41.3857312 -0.541393022,22.6142688 11.0365085,11.0363673 C22.61441,-0.541534198 41.3858724,-0.541534198 52.9637739,11.0363673 L54.4611765,9.53896471 Z" id="Path"></path>
        </g>
    </g>
</svg>