<svg xmlns="http://www.w3.org/2000/svg" viewBox="0 0 323.82 56.76"><defs><style>.cls-1{fill:#f1b51c;}.cls-2{fill:#ed1c24;fill-rule:evenodd;}</style></defs><title>Asset 1</title><g id="Layer_2" data-name="Layer 2"><g id="format"><path class="cls-1" d="M206.53,12.24a13.41,13.41,0,0,0-11.67,7.14,13.5,13.5,0,0,0-3.82-4.9,10.8,10.8,0,0,0-6.81-2.24c-3.8,0-6.55,2.24-8.74,5.47a5.68,5.68,0,0,0-1.18-3.55,3.79,3.79,0,0,0-3-1.56A4.37,4.37,0,0,0,168,14.16a6,6,0,0,0-1.18,3.63v32A6.1,6.1,0,0,0,168,53.37a4,4,0,0,0,6.3,0,5.58,5.58,0,0,0,1.2-3.58v-18c0-2.81.09-5.41,1.28-7.32a6.44,6.44,0,0,1,5.58-3.07,5.84,5.84,0,0,1,5.24,2.9c1.11,1.78,1.46,4.39,1.46,7.37V49.79c0,2.71,1.76,5.1,4.06,5.1a4.3,4.3,0,0,0,3.18-1.52,6.17,6.17,0,0,0,1.26-3.58V31.39a12.4,12.4,0,0,1,1.76-7,6.37,6.37,0,0,1,5.48-2.95,5.76,5.76,0,0,1,5.25,2.9c1.1,1.78,1.14,4.39,1.14,7.37V49.79a5.84,5.84,0,0,0,1.16,3.58,4,4,0,0,0,3.09,1.52,4.35,4.35,0,0,0,3.19-1.52,5.57,5.57,0,0,0,1.18-3.58V31.18c0-5.47-.93-10.14-3.17-13.51a11.11,11.11,0,0,0-10.12-5.43"/><path class="cls-1" d="M247,42.45A8.31,8.31,0,0,1,240.12,46a8.21,8.21,0,0,1-6.9-3.57,14.26,14.26,0,0,1-2.66-8.71,14.17,14.17,0,0,1,2.66-8.69,8.35,8.35,0,0,1,6.9-3.62A8.46,8.46,0,0,1,247,25.05a14,14,0,0,1,2.65,8.69A14.12,14.12,0,0,1,247,42.45m-6.92-30.21a16.89,16.89,0,0,0-12.87,6.29,23.4,23.4,0,0,0-5.31,15.21A23.61,23.61,0,0,0,227.25,49,16.38,16.38,0,0,0,253,49a23.85,23.85,0,0,0,5.25-15.23A23.63,23.63,0,0,0,253,18.53a17,17,0,0,0-12.91-6.29"/><path class="cls-1" d="M287.22,12.94h0a2.56,2.56,0,0,0-1.42-.34,3.88,3.88,0,0,0-3.6,2.77l-8.93,23.45L264.4,15.37a3.8,3.8,0,0,0-3.57-2.77,2.94,2.94,0,0,0-1.58.42h-.07a4.84,4.84,0,0,0-2.31,4.27,5.63,5.63,0,0,0,.34,1.87l12.55,32.92v.05a3.66,3.66,0,0,0,7.1-.05l12.47-32.92a4.77,4.77,0,0,0,.36-1.83,4.87,4.87,0,0,0-2.47-4.39"/><path class="cls-1" d="M300.36,23.51a8.15,8.15,0,0,1,6-2.56,8.07,8.07,0,0,1,6,2.65,12.71,12.71,0,0,1,2.79,5.91H297.59a12.12,12.12,0,0,1,2.77-6m22.37,12.63a3.47,3.47,0,0,0,1.09-2.57,24,24,0,0,0-5-15.21,15.89,15.89,0,0,0-12.5-6.12,16.65,16.65,0,0,0-12.78,6.29,24,24,0,0,0-5.14,15.21,23.42,23.42,0,0,0,5.3,15.18,16.79,16.79,0,0,0,12.86,6.32,19,19,0,0,0,14.46-7h0a5,5,0,0,0,.53-5.86h0v0a3.7,3.7,0,0,0-2.89-1.67,2.74,2.74,0,0,0-2.28,1,12.47,12.47,0,0,1-9.57,4.75,9.08,9.08,0,0,1-6.56-2.82,11.65,11.65,0,0,1-2.88-6.5h23.09a3.09,3.09,0,0,0,2.28-1"/><path class="cls-1" d="M206.53,12.24a13.41,13.41,0,0,0-11.67,7.14,13.5,13.5,0,0,0-3.82-4.9,10.8,10.8,0,0,0-6.81-2.24c-3.8,0-6.55,2.24-8.74,5.47a5.68,5.68,0,0,0-1.18-3.55,3.79,3.79,0,0,0-3-1.56A4.37,4.37,0,0,0,168,14.16a6,6,0,0,0-1.18,3.63v32A6.1,6.1,0,0,0,168,53.37a4,4,0,0,0,6.3,0,5.58,5.58,0,0,0,1.2-3.58v-18c0-2.81.09-5.41,1.28-7.32a6.44,6.44,0,0,1,5.58-3.07,5.84,5.84,0,0,1,5.24,2.9c1.11,1.78,1.46,4.39,1.46,7.37V49.79c0,2.71,1.76,5.1,4.06,5.1a4.3,4.3,0,0,0,3.18-1.52,6.17,6.17,0,0,0,1.26-3.58V31.39a12.4,12.4,0,0,1,1.76-7,6.37,6.37,0,0,1,5.48-2.95,5.76,5.76,0,0,1,5.25,2.9c1.1,1.78,1.14,4.39,1.14,7.37V49.79a5.84,5.84,0,0,0,1.16,3.58,4,4,0,0,0,3.09,1.52,4.35,4.35,0,0,0,3.19-1.52,5.57,5.57,0,0,0,1.18-3.58V31.18c0-5.47-.93-10.14-3.17-13.51a11.11,11.11,0,0,0-10.12-5.43"/><path class="cls-1" d="M247,42.45A8.31,8.31,0,0,1,240.12,46a8.21,8.21,0,0,1-6.9-3.57,14.26,14.26,0,0,1-2.66-8.71,14.17,14.17,0,0,1,2.66-8.69,8.35,8.35,0,0,1,6.9-3.62A8.46,8.46,0,0,1,247,25.05a14,14,0,0,1,2.65,8.69A14.12,14.12,0,0,1,247,42.45m-6.92-30.21a16.89,16.89,0,0,0-12.87,6.29,23.4,23.4,0,0,0-5.31,15.21A23.61,23.61,0,0,0,227.25,49,16.38,16.38,0,0,0,253,49a23.85,23.85,0,0,0,5.25-15.23A23.63,23.63,0,0,0,253,18.53a17,17,0,0,0-12.91-6.29"/><path class="cls-1" d="M287.22,12.94h0a2.56,2.56,0,0,0-1.42-.34,3.88,3.88,0,0,0-3.6,2.77l-8.93,23.45L264.4,15.37a3.8,3.8,0,0,0-3.57-2.77,2.94,2.94,0,0,0-1.58.42h-.07a4.84,4.84,0,0,0-2.31,4.27,5.63,5.63,0,0,0,.34,1.87l12.55,32.92v.05a3.66,3.66,0,0,0,7.1-.05l12.47-32.92a4.77,4.77,0,0,0,.36-1.83,4.87,4.87,0,0,0-2.47-4.39"/><path class="cls-1" d="M300.36,23.51a8.15,8.15,0,0,1,6-2.56,8.07,8.07,0,0,1,6,2.65,12.71,12.71,0,0,1,2.79,5.91H297.59a12.12,12.12,0,0,1,2.77-6m22.37,12.63a3.47,3.47,0,0,0,1.09-2.57,24,24,0,0,0-5-15.21,15.89,15.89,0,0,0-12.5-6.12,16.65,16.65,0,0,0-12.78,6.29,24,24,0,0,0-5.14,15.21,23.42,23.42,0,0,0,5.3,15.18,16.79,16.79,0,0,0,12.86,6.32,19,19,0,0,0,14.46-7h0a5,5,0,0,0,.53-5.86h0v0a3.7,3.7,0,0,0-2.89-1.67,2.74,2.74,0,0,0-2.28,1,12.47,12.47,0,0,1-9.57,4.75,9.08,9.08,0,0,1-6.56-2.82,11.65,11.65,0,0,1-2.88-6.5h23.09a3.09,3.09,0,0,0,2.28-1"/><path class="cls-2" d="M19.72,0H6.32V11.1H0V23.35H6.32V37.76c0,11.29,9.13,18.47,20.43,18.47h7.9V44.47H26.72a7,7,0,0,1-7-7V23.35l8.8,0a6.41,6.41,0,0,0,6.13-6.43V11.1H19.72ZM96.64,38a7,7,0,1,1-14,0V17.56a6.45,6.45,0,0,0-6.47-6.46h-7V36.27c0,11.33,6.12,20.49,20.42,20.49s20.44-9.16,20.44-20.49V11.1H96.64V38m59.64-3c-.1-14-7.69-25-21.82-25-12.13,0-21.92,9.78-21.92,23.29,0,14.57,8.89,23.17,22,23.43A22.52,22.52,0,0,0,154.33,45L142,41.74a9.08,9.08,0,0,1-7.58,3.82c-4.79,0-8.65-3.45-8.78-7.61h30.6c0-.66,0-2.24,0-2.94m-30.6-6.25c.13-4.17,4-7.58,8.78-7.58s8.75,3.37,8.82,7.58ZM58.21,11.1H56.4A18.59,18.59,0,0,0,37.8,29.71V56.23H51.2V30.37a7,7,0,0,1,7-7h7.84V11.1H58.21Z"/></g></g></svg>