<?xml version="1.0" encoding="UTF-8"?>
<svg width="64px" height="64px" viewBox="0 0 64 64" version="1.1" xmlns="http://www.w3.org/2000/svg" xmlns:xlink="http://www.w3.org/1999/xlink">
    <!-- Generator: Sketch 57.1 (83088) - https://sketch.com -->
    <title>Group 3</title>
    <desc>Created with Sketch.</desc>
    <g id="Page-1" stroke="none" stroke-width="1" fill="none" fill-rule="evenodd">
        <g id="Group-3">
            <g id="Group">
                <g id="icn-info" fill="#D8D8D8" fill-opacity="0.9" fill-rule="nonzero">
                    <circle id="Oval" cx="32" cy="32" r="32"></circle>
                </g>
                <g id="arrow-up-1" transform="translate(16.000000, 21.333333)"></g>
            </g>
            <g id="Group-2" transform="translate(12.000000, 12.000000)" fill="#434343" fill-rule="nonzero">
                <path d="M18,6.45 C19.6243087,6.45 20.9520552,7.71973547 21.0448224,9.32078954 L21.05,9.50000021 L21.049998,16.9410526 C21.4812619,16.7075712 21.975148,16.5750011 22.4999974,16.5750011 C23.3907813,16.5750011 24.1923738,16.9568758 24.7499974,17.5658478 C25.3076211,16.9568758 26.1092135,16.5750012 26.9999975,16.5750011 C28.195858,16.5750011 29.2309727,17.2632368 29.7308589,18.2652254 C30.229792,17.909351 30.8404467,17.7000012 31.4999976,17.7000011 C33.1243061,17.7000011 34.4520528,18.9697364 34.54482,20.5707894 L34.5499976,20.75 L34.5499976,31.0685011 C34.5499976,33.3176675 33.6562942,35.4748998 32.0658348,37.0655347 C30.5478144,38.5843694 28.5129368,39.4677719 26.3746293,39.5445395 L26.0684979,39.5500005 L21.6916178,39.5500005 C18.5213641,39.5504753 15.553776,38.0179573 13.7176624,35.4490837 L13.537857,35.1887602 L8.06317894,26.9767427 C7.36609143,25.9327523 7.36609141,24.571752 8.06286057,23.5282345 C8.11275429,23.4533952 8.16587301,23.3807566 8.22206591,23.3105247 C9.25488654,22.0196632 11.1070968,21.7704206 12.4396899,22.7113017 L12.5910685,22.825155 L14.9499999,24.7111396 L14.9499999,9.5 C14.9499999,7.81553168 16.3155316,6.45 18,6.45 Z M18,8.05 C17.2462938,8.05 16.6268995,8.62505864 16.5566376,9.36035535 L16.5499999,9.5 L16.5499999,26.375 C16.5499999,27.0084326 15.8580774,27.3763062 15.3398955,27.0624019 L15.2504313,26.999845 L11.5917039,24.0746631 C10.9411787,23.5541747 9.99187906,23.6595908 9.47139306,24.3101154 C9.44412317,24.3441983 9.41834587,24.3794482 9.39381636,24.4162414 C9.08404038,24.8801781 9.05822572,25.4732495 9.31661972,25.9590778 L9.39413749,26.0887399 L14.8689773,34.3009997 C16.3359503,36.4997394 18.7687616,37.8514464 21.3985299,37.9448242 L21.6914979,37.9500003 L26.0686631,37.9500003 C27.8936876,37.9503769 29.6440172,37.2253028 30.9342811,35.9343468 C32.1531763,34.715317 32.8676832,33.0863622 32.9433109,31.3718788 L32.9499976,31.0685011 L32.9499976,20.75 C32.9499976,19.9491883 32.3008102,19.3000011 31.4999976,19.3000011 C30.7462915,19.3000012 30.1268971,19.8750597 30.0566352,20.6103555 L30.05,20.75 L30.05,23 C30.05,23.4418278 29.6918278,23.8 29.25,23.8 C28.842159,23.8 28.5055984,23.4948119 28.4562331,23.1003503 L28.45,23 L28.4499975,19.6250011 C28.4499975,18.8241884 27.8008102,18.1750011 26.9999975,18.1750011 C26.2462913,18.1750012 25.626897,18.7500598 25.5566351,19.4853565 L25.55,19.625 L25.55,23 C25.55,23.4418278 25.1918278,23.8 24.75,23.8 C24.342159,23.8 24.0055984,23.4948119 23.9562331,23.1003503 L23.95,23 L23.95,19.625 C23.9499974,18.8241884 23.3008101,18.1750011 22.4999974,18.1750011 C21.7462912,18.1750012 21.1268969,18.7500598 21.056635,19.4853565 L21.05,19.625 L21.05,23 C21.05,23.4418278 20.6918278,23.8 20.25,23.8 C19.842159,23.8 19.5055984,23.4948119 19.4562331,23.1003503 L19.45,23 L19.45,19.625 L19.45,9.5 C19.45,8.6991873 18.8008127,8.05 18,8.05 Z M10.1635726,5.39163158 C12.2215024,1.07147117 17.3919599,-0.762427584 21.7121136,1.29550298 C26.0322739,3.35343281 27.8661728,8.52389029 25.808242,12.8440442 C25.6182317,13.2429275 25.140839,13.4122524 24.7419558,13.222242 C24.3430725,13.0322317 24.1737476,12.554839 24.363758,12.1559558 C26.0416675,8.63356909 24.5464196,4.41789718 21.0240256,2.73998732 C17.5016387,1.06207762 13.2859668,2.55732548 11.6080569,6.07971953 C10.3323166,8.7578437 10.8655917,11.9477159 12.9430615,14.0652592 C13.2524824,14.3806487 13.2476439,14.8871576 12.9322544,15.1965784 C12.616865,15.5059993 12.1103561,15.5011608 11.8009352,15.1857713 C9.25295014,12.5886368 8.59889682,8.67630956 10.1635726,5.39163158 Z M6.18768542,4.05631458 C6.47170309,4.34033224 6.49752288,4.7847735 6.26514479,5.0979591 L6.18768542,5.18768542 L2.25337085,9.122 L6.18768542,13.0563146 C6.50010486,13.368734 6.50010486,13.875266 6.18768542,14.1876854 C5.90366776,14.4717031 5.4592265,14.4975229 5.1460409,14.2651448 L5.05631458,14.1876854 L0.556314575,9.68768542 C0.272296908,9.40366776 0.24647712,8.9592265 0.478855211,8.6460409 L0.556314575,8.55631458 L5.05631458,4.05631458 C5.36873401,3.74389514 5.87526599,3.74389514 6.18768542,4.05631458 Z M30.8478519,3.97877591 L30.9375912,4.05622032 L35.4390912,8.55622032 C35.7232231,8.84025758 35.7490533,9.2848208 35.5165817,9.59804459 L35.4390912,9.68777968 L30.9375912,14.1877797 C30.6251197,14.5001471 30.1185877,14.5000626 29.8062203,14.1875912 C29.52225,13.9035262 29.4965043,13.4590806 29.7289345,13.1459337 L29.8064088,13.0562203 L33.7419406,9.122 L29.8064088,5.18777968 C29.4939374,4.87541231 29.4938529,4.36888034 29.8062203,4.05640885 C30.0901907,3.77234386 30.5346276,3.74645001 30.8478519,3.97877591 Z" id="Combined-Shape"></path>
            </g>
        </g>
    </g>
</svg>